/* XPM */
static char * xfw_xpm[] = {
"32 32 344 2",
"  	c None",
". 	c #070906",
"+ 	c #4B4C4B",
"@ 	c #545553",
"# 	c #4C4E4C",
"$ 	c #494B49",
"% 	c #484A48",
"& 	c #484B48",
"* 	c #454545",
"= 	c #454645",
"- 	c #40413E",
"; 	c #40413F",
"> 	c #3B3C3B",
", 	c #36353A",
"' 	c #414241",
") 	c #1B1B1B",
"! 	c #000000",
"~ 	c #121312",
"{ 	c #FDFFFA",
"] 	c #FFFFFF",
"^ 	c #C9C8CA",
"/ 	c #424342",
"( 	c #0C0D0C",
"_ 	c #F8FAF7",
": 	c #F2F4F1",
"< 	c #EDEFEC",
"[ 	c #ECEEEB",
"} 	c #E9EBE8",
"| 	c #EEF0EC",
"1 	c #EEF0ED",
"2 	c #EAECE9",
"3 	c #E9ECE8",
"4 	c #F1EEF2",
"5 	c #414342",
"6 	c #05050B",
"7 	c #080908",
"8 	c #DFE3DE",
"9 	c #DADED9",
"0 	c #D9DCD8",
"a 	c #D9DDD8",
"b 	c #DADDD9",
"c 	c #D8DAD7",
"d 	c #D9DBD8",
"e 	c #D4D6D3",
"f 	c #D3D5D2",
"g 	c #E3E5E2",
"h 	c #E6E3E8",
"i 	c #505151",
"j 	c #060706",
"k 	c #EFF1EE",
"l 	c #DBDFDA",
"m 	c #DCDEDB",
"n 	c #D5D8D4",
"o 	c #D5D9D4",
"p 	c #D5D6D4",
"q 	c #D5D7D4",
"r 	c #CFD1CE",
"s 	c #D0D2CF",
"t 	c #CED0CD",
"u 	c #DFE1DE",
"v 	c #FBFDFC",
"w 	c #C6C9C8",
"x 	c #E1E4E3",
"y 	c #E4E6E4",
"z 	c #D9DBDB",
"A 	c #3D3E3C",
"B 	c #FDFEFB",
"C 	c #E0E2DF",
"D 	c #DADCD9",
"E 	c #DADBD9",
"F 	c #D2D4D2",
"G 	c #E3E5E4",
"H 	c #F8FCFD",
"I 	c #96979C",
"J 	c #9FA1A9",
"K 	c #B3B4B7",
"L 	c #B5B5B7",
"M 	c #5D5E5F",
"N 	c #FEFFFF",
"O 	c #B9BDB9",
"P 	c #88854C",
"Q 	c #897D4C",
"R 	c #D4D8D0",
"S 	c #7B7E7E",
"T 	c #EEF1ED",
"U 	c #E7E9E5",
"V 	c #E2E4DF",
"W 	c #E1E2DE",
"X 	c #E1E3DF",
"Y 	c #DEE0DE",
"Z 	c #D9DBD9",
"` 	c #F5F7F7",
" .	c #E6EAF1",
"..	c #BCB373",
"+.	c #E7D362",
"@.	c #D0B037",
"#.	c #999264",
"$.	c #FDFFFF",
"%.	c #7F8281",
"&.	c #FBFDFA",
"*.	c #D6D9D5",
"=.	c #CBCDC9",
"-.	c #D2D5D3",
";.	c #FAFCFD",
">.	c #BBBDB7",
",.	c #CFC762",
"'.	c #CEB043",
").	c #C2A84A",
"!.	c #908556",
"~.	c #EFF3F7",
"{.	c #7D8180",
"].	c #FEFFFC",
"^.	c #DCDFDB",
"/.	c #DBDDDA",
"(.	c #DBDDDB",
"_.	c #D6DAD5",
":.	c #D4D6D4",
"<.	c #D3D5D3",
"[.	c #DEE1E0",
"}.	c #F1F5FD",
"|.	c #A3A26E",
"1.	c #E6D560",
"2.	c #CEB146",
"3.	c #9F8836",
"4.	c #8E8F86",
"5.	c #777A7B",
"6.	c #FBFEFA",
"7.	c #CFD2CF",
"8.	c #F5F8F9",
"9.	c #B7BDBD",
"0.	c #D8D06B",
"a.	c #D6BC52",
"b.	c #BFA340",
"c.	c #82753E",
"d.	c #D9DDE4",
"e.	c #767979",
"f.	c #050605",
"g.	c #F6F8F5",
"h.	c #CED0CE",
"i.	c #CCCECA",
"j.	c #C9CBC8",
"k.	c #D5D9D7",
"l.	c #FBFEFF",
"m.	c #F1F5FB",
"n.	c #ADAD7E",
"o.	c #E4D165",
"p.	c #C9A93C",
"q.	c #B19C4B",
"r.	c #79735F",
"s.	c #757777",
"t.	c #F0F2EF",
"u.	c #EFF2EF",
"v.	c #EDEEEB",
"w.	c #EEEEEB",
"x.	c #EBEDEA",
"y.	c #EAECEA",
"z.	c #F0F2F1",
"A.	c #C0C2BF",
"B.	c #C6BC53",
"C.	c #D5B94D",
"D.	c #CDAF43",
"E.	c #746222",
"F.	c #BEBFC0",
"G.	c #747675",
"H.	c #FCFEFB",
"I.	c #F5F7F4",
"J.	c #F1F3F0",
"K.	c #F0F3F0",
"L.	c #FBFDFD",
"M.	c #F0F3F5",
"N.	c #A19F6F",
"O.	c #F3E482",
"P.	c #CBAC3D",
"Q.	c #AC9136",
"R.	c #817951",
"S.	c #E3E8ED",
"T.	c #737574",
"U.	c #EFF2EE",
"V.	c #D2D4D0",
"W.	c #CDCFCA",
"X.	c #CDCFCB",
"Y.	c #CACCC9",
"Z.	c #C9CCC9",
"`.	c #C6C7C4",
" +	c #C6C7C5",
".+	c #EEEFED",
"++	c #E3E6E6",
"@+	c #9D9E80",
"#+	c #FEF9E1",
"$+	c #97853D",
"%+	c #88877D",
"&+	c #727473",
"*+	c #F6F9F5",
"=+	c #D6D8D5",
"-+	c #D1D3D0",
";+	c #D0D2D0",
">+	c #CFD1CF",
",+	c #CFD1D0",
"'+	c #BDBDAF",
")+	c #8D8666",
"!+	c #D2D5D7",
"~+	c #727472",
"{+	c #FCFFFB",
"]+	c #D8DBD7",
"^+	c #D7D9D6",
"/+	c #F1F4F1",
"(+	c #C2C4C3",
"_+	c #D2D5D4",
":+	c #D5D8C5",
"<+	c #8B8D89",
"[+	c #F7FAF9",
"}+	c #F9FCFB",
"|+	c #717472",
"1+	c #F7F9F6",
"2+	c #CCCECB",
"3+	c #CBCDCA",
"4+	c #CBCDCB",
"5+	c #F7F9F7",
"6+	c #AEAFAE",
"7+	c #747475",
"8+	c #C4C3C4",
"9+	c #767875",
"0+	c #DEE0DF",
"a+	c #FBFDFB",
"b+	c #F8FAF8",
"c+	c #050604",
"d+	c #DEE0DD",
"e+	c #DDDFDC",
"f+	c #E6E8E5",
"g+	c #FEFFFD",
"h+	c #9B9D9A",
"i+	c #3A3939",
"j+	c #E1E3E1",
"k+	c #FDFFFD",
"l+	c #F4F6F4",
"m+	c #F4F6F1",
"n+	c #CFD1CD",
"o+	c #CDCFCC",
"p+	c #D0D2CE",
"q+	c #D2D4D1",
"r+	c #8B8C8B",
"s+	c #3B3B3A",
"t+	c #D0D1CD",
"u+	c #F4F6F3",
"v+	c #FFFFFE",
"w+	c #050603",
"x+	c #FDFFFC",
"y+	c #F9FBF8",
"z+	c #FCFEFA",
"A+	c #040503",
"B+	c #AAA9AB",
"C+	c #929696",
"D+	c #ECEEEA",
"E+	c #F7F9F5",
"F+	c #9B9C9E",
"G+	c #6A696A",
"H+	c #6D6C6D",
"I+	c #CACAC9",
"J+	c #FBFCF9",
"K+	c #F8F9F5",
"L+	c #D1D4D0",
"M+	c #FAFCF9",
"N+	c #5E5E60",
"O+	c #1E1E1E",
"P+	c #5A5D5B",
"Q+	c #303330",
"R+	c #F5F8F4",
"S+	c #40403F",
"T+	c #595B59",
"U+	c #A1A1A0",
"V+	c #5C5E5C",
"W+	c #88898A",
"X+	c #AAAAAC",
"Y+	c #717070",
"Z+	c #0F0D12",
"`+	c #2F302F",
" @	c #6B6C71",
".@	c #DADAD7",
"+@	c #0D0D0E",
"@@	c #757477",
"#@	c #646365",
"$@	c #9E9E9D",
"%@	c #A9ABA8",
"&@	c #D3D2D1",
"*@	c #BABBB9",
"=@	c #4C4D4E",
"-@	c #CFD0CC",
";@	c #737573",
">@	c #070806",
",@	c #F8FAF6",
"'@	c #545555",
")@	c #121313",
"!@	c #A5A5A4",
"~@	c #1F1F23",
"{@	c #DADBD8",
"]@	c #676966",
"^@	c #6F6E70",
"/@	c #676967",
"(@	c #0B090A",
"_@	c #626562",
":@	c #777679",
"<@	c #757775",
"[@	c #0C0D0A",
"}@	c #747679",
"|@	c #C5C7C7",
"1@	c #C7C9C8",
"2@	c #6D6D70",
"3@	c #C4C5C3",
"4@	c #75777B",
"5@	c #CACBCA",
"6@	c #2A2A2F",
"7@	c #D0D1D0",
"8@	c #818181",
"9@	c #656265",
"0@	c #7B7D7B",
"a@	c #0E0F0E",
"b@	c #E1E2E1",
"c@	c #E1E1E0",
"d@	c #CDCDCB",
"e@	c #EEEFEB",
"f@	c #C5C5C7",
"g@	c #FAFDF9",
"h@	c #F0F0ED",
"i@	c #F9FCF8",
"j@	c #F7FBF6",
"k@	c #F7FAF6",
"l@	c #FBFEF9",
"m@	c #828582",
"n@	c #2D2B2B",
"o@	c #353735",
"p@	c #353634",
"q@	c #343432",
"r@	c #303230",
"s@	c #343532",
"t@	c #333432",
"u@	c #292A2B",
"v@	c #2D2F2D",
"w@	c #2E302E",
"x@	c #343533",
"y@	c #323532",
"z@	c #313331",
"A@	c #2F312F",
"B@	c #3B3C3A",
"C@	c #262626",
"                                                                ",
"                                                                ",
"      . + @ # $ % & * = = = - ; > > > > > > , ' ) !             ",
"      ~ { ] ] ] ] ] ] ] ] ] ] ] ] ] ] ] ] ] ] ] ^ /             ",
"      ( _ ] : < [ [ < } } | 1 2 2 2 2 3 } : ] ] 4 ] 5 6         ",
"      7 : ] 8 9 0 a b c d d e e e e e f f g ] ] h ] ] i         ",
"      j k ] l m n n o e e p q q r s r r t u ] v w x y z A       ",
"      j 1 B C D d E D D D D n n n o n f F G ] H I J K L M       ",
"      j 1 ] ] ] ] ] ] ] ] ] ] ] ] ] ] ] N ] ] O P Q R ] S       ",
"      j T ] U V W X X X Y u V u u D D Z ` ]  ...+.@.#.$.%.      ",
"      j k &.D *.n n e e r r r r r =.=.-.;.] >.,.'.).!.~.{.      ",
"      j k ].^.m /.(.*.*._.q q q q :.<.[.] }.|.1.2.3.4.] 5.      ",
"      j k 6.D q e q q q 7.s s s r r :.8.] 9.0.a.b.c.d.] e.      ",
"      f.k g.q r h.r r r r r s r i.j.k.l.m.n.o.p.q.r.] ] s.      ",
"      f.k ] g.t.u.t.v.v.w.w.x.x.2 y.z.] A.B.C.D.E.F.] ] G.      ",
"      f.k ] H.g.I.t.g.t.t.J.K.t.v.t.L.M.N.O.P.Q.R.S.] ] T.      ",
"      f.U.g.V.s r W.X.X.Y.Y.Y.Z.`. +.+++@+] #+$+%+] ] ] &+      ",
"      f.t.*+=+-+s ;+-+-+-+-+;+7.i.>+] ,+'+] ] )+!+] ] ] ~+      ",
"      f.t.{+m 0 ]+]+^+^+^+^+=+s q /+] (+_+] :+<+[+}+] ] |+      ",
"      f.t.1+-+2+3+4+2+2+2+3+3+Y.q 5+] 6+7+8+9+0+a+b+] ] |+      ",
"      c+t.] g d+e+e+d+d+d+d+e+m f+g+] h+! i+j+k+l+g.g+] ~+      ",
"      c+U.m+-+n+2+o+o+o+o+p+o+q+g+] ] r+s+t+] _ u+g.v+] ~+      ",
"      w+3 ] _ &.&.1+1+x+_ _ x+g+] v+] C j.] g+y+z+1+g+] ~+      ",
"      A+} ] ] =+B+] ] C+D+E+F+G+F+] H+I+] J+K+g.L+M+v+] ~+      ",
"      A+3 ] ] N+O+] P+Q+R+S+T+3+e+T ! U+] V+W+X+Y+] ] ] ~+      ",
"      c+2 ] ] m Z+`+ @y+.@+@@@#@$@g.! %@&@! *@=@-@g+] ] ;@      ",
"      >@1 ] ] ,@'@)@q ] !@~@{@1 : ] ]@^@/@(@_@:@] H.] ] <@      ",
"      [@M+] ] }@|@1@2@] 3@4@] ] ] ] 5@6@7@8@9@M+] ] ] ] 0@      ",
"      a@b@] c@d@] ] e@] c@f@v+].x+v+g@h@] i@1+] j@k@l@] m@      ",
"      ! n@o@p@q@r@r@Q+r@s@t@u@v@v@w@r@x@y@y@z@A@v@v@r@B@C@      ",
"                                                                ",
"                                                                "};
